<?xml version="1.0" encoding="utf-8"?>
<!-- Generator: Adobe Illustrator 15.0.2, SVG Export Plug-In . SVG Version: 6.00 Build 0)  -->
<!DOCTYPE svg PUBLIC "-//W3C//DTD SVG 1.1//EN" "http://www.w3.org/Graphics/SVG/1.1/DTD/svg11.dtd">
<svg version="1.1" id="Layer_1" xmlns="http://www.w3.org/2000/svg" xmlns:xlink="http://www.w3.org/1999/xlink" x="0px" y="0px"
	 width="96px" height="96px" viewBox="0 0 96 96" enable-background="new 0 0 96 96" xml:space="preserve">
<path fill="none" d="M24.319,51.962c-2.116,0.016-3.818,1.751-3.803,3.872c0.016,2.116,1.741,3.817,3.867,3.802
	c2.12-0.015,3.825-1.751,3.809-3.866C28.168,53.648,26.44,51.947,24.319,51.962z"/>
<path fill="none" d="M69.225,51.604c-2.112,0.022-3.814,1.749-3.8,3.871c0.015,2.114,1.743,3.816,3.864,3.803
	c2.123-0.018,3.827-1.743,3.812-3.867C73.086,53.289,71.348,51.587,69.225,51.604z"/>
<g>
	<path fill="#EE3426" d="M52.24,50.342c-0.01-1.325-0.607-2.124-2.017-2.114l-2.768,0.028l0.046,6.906l1.613-0.012l-0.017-2.532
		l0.532-0.017l1.113,2.539l1.745-0.015l-1.269-2.715C52.049,52.104,52.246,51.149,52.24,50.342z M50.064,51.248l-0.977,0.007
		l-0.02-1.622l0.984-0.008c0.411-0.003,0.582,0.248,0.586,0.803C50.642,51.02,50.51,51.244,50.064,51.248z"/>
	<path fill="#EE3426" d="M44.524,53.867c-0.913,0.006-1.479-0.278-1.493-2.132c-0.013-1.869,0.562-2.139,1.463-2.146
		c0.51-0.003,1.23,0.102,1.739,0.205l0.097-1.481c-0.745-0.116-1.182-0.186-1.832-0.182c-2.241,0.025-3.159,1.288-3.142,3.624
		c0.018,2.339,0.939,3.574,3.179,3.557c0.651-0.004,1.096-0.079,1.854-0.206l-0.14-1.48C45.754,53.738,45.033,53.854,44.524,53.867z
		"/>
	<path fill="#EE3426" d="M31.986,52.67c-0.192-0.472-0.426-0.922-0.7-1.348l8.401-0.062c0.067-0.709,0.238-1.383,0.493-2.017
		L29.472,49.33c-1.424-1.132-3.226-1.804-5.185-1.79c-4.552,0.033-8.227,3.77-8.194,8.326c0.038,4.55,3.773,8.232,8.322,8.191
		c4.558-0.033,8.232-3.77,8.198-8.328c-0.002-0.353-0.042-0.708-0.086-1.061l7.659-0.063c-0.255-0.623-0.425-1.294-0.494-2.001
		L31.986,52.67z M24.384,59.636c-2.126,0.016-3.852-1.686-3.867-3.802c-0.016-2.121,1.687-3.856,3.803-3.872
		c2.121-0.015,3.849,1.687,3.873,3.808C28.209,57.885,26.504,59.621,24.384,59.636z"/>
	<path fill="#EE3426" d="M47.618,0.001C21.107,0.215-0.208,21.875,0.001,48.383c0.214,26.51,21.871,47.823,48.381,47.615
		c26.514-0.21,47.825-21.867,47.615-48.379C95.79,21.107,74.133-0.208,47.618,0.001z M39.762,34.242l0.021,0.014l1.658,0.549
		c-0.108-0.391-0.179-0.797-0.182-1.228c-0.009-1.302,0.497-2.478,1.335-3.349l-1.349-0.444l-0.005-0.004
		c1.149-1.541,2.988-2.54,5.057-2.555c3.521-0.029,6.398,2.804,6.425,6.329l0.036,4.02h-0.004c-1.442,0.73-4.109,1.294-7.113,1.314
		c-3.066,0.022-5.618-0.472-7.043-1.203h-0.014L39.762,34.242z M82.619,35.513l-5.205,0.037c-0.134,2.778-1.548,5.265-2.535,6.678
		c4.558,1.871,7.263,4.188,7.281,6.716c0.021,1.722-1.229,3.372-3.452,4.863c0.079,0.504,0.143,1.028,0.146,1.562
		c0.046,5.286-4.229,9.623-9.516,9.67c-3.845,0.028-7.182-2.227-8.74-5.491c-5.086,0.797-10.81,1.265-16.869,1.308
		c-4.053,0.029-7.705-0.127-10.972-0.456c-1.615,2.952-4.732,4.964-8.324,4.999c-5.294,0.037-9.629-4.236-9.672-9.521
		c-0.003-0.395,0.024-0.783,0.067-1.167c-1.801-1.562-2.727-3.325-2.742-5.208c-0.044-5.626,7.839-10.38,24.136-11.567
		c0.903,2.188,5.474,2.958,9.445,2.929c3.8-0.026,8.125-0.805,9.262-2.79c2.607,0.219,5.095,0.523,7.434,0.9
		c0.834-0.93,1.57-2.036,2.012-3.32l-1.683,0.013c-0.663,0.014-1.209-0.525-1.214-1.189c-0.006-0.666,0.523-1.211,1.187-1.216
		l19.938-0.162c0.667-0.005,1.208,0.533,1.213,1.199C83.82,34.962,83.285,35.508,82.619,35.513z"/>
	<path fill="#EE3426" d="M64.037,49.053l-10.505,0.086c0.264,0.63,0.445,1.301,0.522,2.01l8.205-0.068
		c-0.27,0.422-0.496,0.874-0.684,1.348l-7.508,0.064c-0.058,0.699-0.218,1.381-0.456,2.008l7.455-0.054
		c-0.041,0.343-0.066,0.699-0.064,1.061c0.033,4.559,3.77,8.233,8.318,8.191c4.559-0.033,8.233-3.77,8.201-8.319
		c-0.033-4.558-3.771-8.23-8.329-8.197C67.235,47.194,65.443,47.901,64.037,49.053z M73.102,55.41
		c0.015,2.124-1.689,3.85-3.812,3.867c-2.121,0.014-3.85-1.688-3.864-3.803c-0.015-2.122,1.688-3.849,3.8-3.871
		C71.348,51.587,73.086,53.289,73.102,55.41z"/>
</g>
</svg>
