<?xml version="1.0" encoding="utf-8"?>
<!-- Generator: Adobe Illustrator 15.0.2, SVG Export Plug-In . SVG Version: 6.00 Build 0)  -->
<!DOCTYPE svg PUBLIC "-//W3C//DTD SVG 1.1//EN" "http://www.w3.org/Graphics/SVG/1.1/DTD/svg11.dtd">
<svg version="1.1" id="Layer_1" xmlns="http://www.w3.org/2000/svg" xmlns:xlink="http://www.w3.org/1999/xlink" x="0px" y="0px"
	 width="225px" height="138px" viewBox="0 0 225 138" enable-background="new 0 0 225 138" xml:space="preserve">
<rect fill="#EE3124" width="225" height="138"/>
<g>
	<g>
		<g>
			<path fill="#FFFFFF" d="M48.209,67.942c-0.649,0.108-1.514,0.162-2.161,0.162c-8.211,0-14.314-5.293-14.314-14.422v-7.506
				c0-8.264,5.294-14.475,14.096-14.475c0.649,0,1.512,0.055,2.162,0.163l7.992,1.404l-1.404,6.589l-7.291-1.241
				c-0.378-0.109-0.972-0.163-1.351-0.163c-3.834,0-7.075,2.592-7.075,7.778v7.506c0,4.863,3.025,7.618,7.345,7.618
				c0.324,0,0.917,0,1.296-0.108l7.778-1.353l1.35,6.59L48.209,67.942z"/>
			<path fill="#FFFFFF" d="M68.086,67.618h-7.021V32.241h7.021V67.618z"/>
			<path fill="#FFFFFF" d="M96.173,38.831h-8.102v28.787h-7.238V38.831H71.76v-6.59h25.817L96.173,38.831z"/>
			<path fill="#FFFFFF" d="M107.516,67.618h-7.02V32.241h7.02V67.618z"/>
			<path fill="#FFFFFF" d="M112.486,67.618v-2.917l13.395-25.978h-13.018v-6.482h22.74v2.702l-13.559,26.195h12.639l1.406,6.48
				H112.486z"/>
			<path fill="#FFFFFF" d="M140.52,67.618V32.241h21.604l-1.568,6.428h-13.068v7.67h12.206v6.265h-12.206v8.534h13.448l1.943,6.48
				H140.52z"/>
			<path fill="#FFFFFF" d="M191.452,67.618h-5.075l-11.398-18.633c-0.917-1.513-1.833-3.619-1.833-3.619s0.323,1.998,0.323,3.619
				v18.633h-6.645V32.241h5.077l11.343,18.634c0.919,1.512,1.835,3.619,1.835,3.619s-0.269-1.999-0.269-3.619V32.241h6.642V67.618z"
				/>
		</g>
		<path fill="#FFFFFF" d="M48.257,103.619l-4.335-8.088c-0.626-1.163-1.163-1.968-2.547-1.968h-2.368v10.056h-5.764V74.349h10.054
			c5.228,0,8.535,3.665,8.535,8.67v2.234c0,3.173-1.429,5.674-3.888,7.062c0.625,0.626,1.207,1.474,1.832,2.591l4.693,8.714H48.257z
			 M46.022,83.196c0-2.145-1.073-3.44-3.307-3.44h-3.709v8.805h3.753c2.235,0,3.263-1.296,3.263-3.53V83.196z"/>
		<path fill="#FFFFFF" d="M72.17,103.619l-1.563-5.272h-8.625l-1.608,5.272h-6.078l9.92-29.271h4.201l9.92,29.271H72.17z
			 M66.987,86.235c-0.446-1.384-0.669-3.307-0.669-3.307s-0.18,1.923-0.626,3.307l-2.323,7.553h5.853L66.987,86.235z"/>
		<path fill="#FFFFFF" d="M92.951,103.888c-0.535,0.089-1.251,0.133-1.788,0.133c-6.792,0-11.841-4.378-11.841-11.931v-6.21
			c0-6.838,4.379-11.976,11.662-11.976c0.536,0,1.252,0.044,1.788,0.134l6.614,1.16l-1.162,5.451l-6.034-1.027
			c-0.312-0.089-0.803-0.134-1.117-0.134c-3.172,0-5.854,2.146-5.854,6.436v6.21c0,4.021,2.503,6.302,6.078,6.302
			c0.268,0,0.759,0,1.073-0.089l6.435-1.118l1.117,5.452L92.951,103.888z"/>
		<path fill="#FFFFFF" d="M103.589,103.619V74.349h17.873l-1.296,5.318h-10.813v6.345h10.1v5.184h-10.1v7.062h11.127l1.608,5.362
			H103.589z"/>
		<path fill="#FFFFFF" d="M138.354,103.888c-0.535,0.089-1.251,0.133-1.788,0.133c-6.792,0-11.841-4.378-11.841-11.931v-6.21
			c0-6.838,4.38-11.976,11.664-11.976c0.536,0,1.252,0.044,1.788,0.134l6.61,1.16l-1.159,5.451l-6.033-1.027
			c-0.312-0.089-0.804-0.134-1.116-0.134c-3.174,0-5.854,2.146-5.854,6.436v6.21c0,4.021,2.502,6.302,6.078,6.302
			c0.267,0,0.759,0,1.071-0.089l6.435-1.118l1.119,5.452L138.354,103.888z"/>
		<path fill="#FFFFFF" d="M164.273,103.619l-1.562-5.272h-8.623l-1.61,5.272h-6.076l9.919-29.271h4.199l9.923,29.271H164.273z
			 M159.091,86.235c-0.445-1.384-0.668-3.307-0.668-3.307s-0.181,1.923-0.627,3.307l-2.323,7.553h5.853L159.091,86.235z"/>
		<path fill="#FFFFFF" d="M187.961,103.619l-4.335-8.088c-0.626-1.163-1.161-1.968-2.549-1.968h-2.367v10.056h-5.764V74.349H183
			c5.227,0,8.536,3.665,8.536,8.67v2.234c0,3.173-1.431,5.674-3.889,7.062c0.626,0.626,1.207,1.474,1.832,2.591l4.691,8.714H187.961
			z M185.728,83.196c0-2.145-1.074-3.44-3.309-3.44h-3.709v8.805h3.755c2.233,0,3.263-1.296,3.263-3.53V83.196z"/>
	</g>
	<polygon fill="#FFFFFF" points="197.356,18.041 27.445,18.041 28.622,23.806 196.18,23.806 	"/>
	<polygon fill="#FFFFFF" points="197.356,117.949 27.445,117.949 28.622,112.186 196.18,112.186 	"/>
</g>
</svg>
